PathFileType	4	(X/Y/Z)	C:\Git\research_data\Projects\torsion_deformities_healthy_kinematics\simulations\TD01\pre\dynamic_13_l\marker_experimental.trc
DataRate	CameraRate	NumFrames	NumMarkers	Units	OrigDataRate	OrigDataStartFrame	OrigNumFrames
200	200	8	30	mm	200	1	513
Frame#	Time	C7			T10			CLAV			STRN			RBAK			LASI			RASI			SACR			RT1			RT2			RT3			RKNE			RS1			RS2			RS3			RANK			RHEE			RTOE			LT1			LT2			LT3			LKNE			LS1			LS2			LS3			LANK			LHEE			LTOE			RHJC			LHJC		
		X1	Y1	Z1	X2	Y2	Z2	X3	Y3	Z3	X4	Y4	Z4	X5	Y5	Z5	X6	Y6	Z6	X7	Y7	Z7	X8	Y8	Z8	X9	Y9	Z9	X10	Y10	Z10	X11	Y11	Z11	X12	Y12	Z12	X13	Y13	Z13	X14	Y14	Z14	X15	Y15	Z15	X16	Y16	Z16	X17	Y17	Z17	X18	Y18	Z18	X19	Y19	Z19	X20	Y20	Z20	X21	Y21	Z21	X22	Y22	Z22	X23	Y23	Z23	X24	Y24	Z24	X25	Y25	Z25	X26	Y26	Z26	X27	Y27	Z27	X28	Y28	Z28	X29	Y29	Z29	X30	Y30	Z30	

1	0.000000	-876.322510	1235.865723	183.288986	-923.756470	1052.646484	178.321869	-756.363831	1184.690552	186.425323	-715.198364	1049.240967	187.547623	-912.405945	1164.994751	280.614563	-773.711426	841.573303	90.167122	-806.178955	856.147461	290.836945	-948.118408	888.903137	162.557343	-880.438232	653.472778	318.919678	-931.190430	610.167908	318.177338	-884.333252	588.907593	303.779938	-949.249878	465.300415	284.713226	-1045.763794	365.401062	306.717072	-1090.405151	317.205688	296.148468	-1042.574219	300.298737	293.401398	-1157.546753	134.095032	265.822540	-1204.336060	144.545776	214.634445	-1045.173462	58.824448	243.183563	-778.833923	654.546143	40.358418	-786.774780	588.251160	44.016571	-738.606201	603.026489	57.472290	-714.320435	468.343811	74.987946	-705.874329	323.727081	51.416588	-686.104675	261.103668	61.701904	-647.482605	294.107391	59.458431	-601.784485	100.140984	87.626694	-624.720398	76.650620	137.851791	-456.713013	143.380020	87.067917	-867.245764	796.470152	257.517882	-843.491272	785.807138	110.700125	
2	0.005000	-869.230469	1235.017456	182.064560	-916.173218	1051.558960	177.598633	-749.138000	1184.108765	185.202225	-707.481873	1048.877563	186.284317	-905.284119	1163.947144	279.321594	-765.379517	840.866577	89.541061	-797.790833	855.122986	290.196686	-939.962219	887.760681	162.337540	-873.246948	652.831360	318.424347	-924.239136	609.735901	317.864807	-877.482239	588.248657	303.432617	-942.682800	464.436218	284.795074	-1040.832031	365.850616	306.628357	-1086.168091	318.280151	296.236328	-1038.688843	300.737244	293.238190	-1156.549316	136.180084	266.084991	-1203.183350	147.546066	214.841171	-1044.796753	58.795601	243.218277	-769.758972	654.426697	40.985321	-776.585144	588.372498	44.332413	-728.751648	604.060852	58.667091	-706.022644	467.024963	75.728012	-700.313660	321.593933	53.014194	-681.639832	258.728821	63.776253	-642.241333	290.953278	60.559258	-598.090515	97.325203	89.307480	-621.697754	74.313087	139.198685	-452.760742	138.582001	90.367943	-858.751546	795.369606	256.834440	-835.037664	784.938842	110.023868	
3	0.010000	-862.155457	1234.239136	180.873123	-908.627808	1050.552856	176.904861	-741.937012	1183.587769	184.011551	-699.797485	1048.570190	185.053879	-898.176636	1162.984009	278.067078	-757.114929	840.283142	88.939110	-789.444641	854.137085	289.561768	-931.867310	886.701538	162.141998	-865.862244	652.143494	317.935974	-917.035278	609.200867	317.564117	-870.354980	587.541931	303.107361	-935.735291	463.482666	284.944427	-1035.535156	366.260193	306.603973	-1081.569824	319.345245	296.343689	-1034.446167	301.144501	293.172089	-1155.145020	138.306976	266.372833	-1201.517456	150.650879	215.050034	-1044.408081	58.702911	243.218369	-760.814087	654.349060	41.496616	-766.676331	588.476135	44.623745	-719.131470	604.948547	59.686001	-697.751709	465.875854	76.417679	-694.548584	319.722504	54.448265	-676.938354	256.620911	65.627579	-636.821045	288.115662	61.661953	-594.427246	94.794090	90.827751	-618.792603	72.334763	140.348114	-448.835327	133.659348	93.658409	-850.300252	794.327527	256.142391	-826.645243	784.190872	109.350773	
4	0.015000	-855.097534	1233.531006	179.714645	-901.120300	1049.628296	176.240540	-734.760864	1183.127441	182.853302	-692.145264	1048.318970	183.856323	-891.083496	1162.105347	276.851044	-748.917542	839.822998	88.361237	-781.140320	853.189880	288.932190	-923.833801	885.725647	161.970673	-858.284302	651.409180	317.454559	-909.578796	608.562500	317.275208	-862.951416	586.787476	302.804321	-928.407532	462.439972	285.161224	-1029.872803	366.629761	306.643890	-1076.609741	320.400818	296.470551	-1029.845825	301.520416	293.203125	-1153.333252	140.475662	266.686127	-1199.337524	153.860107	215.261337	-1044.007324	58.546677	243.183716	-751.999390	654.313721	41.892334	-757.049561	588.562988	44.890167	-709.746643	605.690063	60.528831	-689.507690	464.896637	77.056885	-688.578857	318.113586	55.718437	-671.999268	254.781036	67.255188	-631.221558	285.595642	62.765980	-590.794617	92.547859	92.187302	-616.004089	70.715187	141.300156	-444.936493	128.616211	96.937775	-841.892045	793.344048	255.441525	-818.314138	783.563293	108.680645	
5	0.020000	-848.056641	1232.893066	178.589172	-893.650574	1048.785034	175.605682	-727.609619	1182.727905	181.727493	-684.525269	1048.123535	182.691727	-884.004700	1161.311157	275.673492	-740.787537	839.486084	87.807350	-772.878174	852.281433	288.307953	-915.861694	884.833008	161.823502	-850.513428	650.628601	316.980286	-901.869629	607.820679	316.998138	-855.271423	585.985107	302.523804	-920.699951	461.308563	285.445160	-1023.844116	366.959259	306.747955	-1071.286133	321.446411	296.616791	-1024.886108	301.864777	293.331299	-1151.111572	142.685959	267.025238	-1196.641235	157.173431	215.475983	-1043.594116	58.327866	243.114105	-743.314941	654.322021	42.172604	-747.707520	588.636047	45.130474	-700.599548	606.287659	61.195034	-681.291260	464.087677	77.645493	-682.403748	316.769135	56.823742	-666.820618	253.212051	68.657112	-625.442322	283.395630	63.869778	-587.192444	90.586685	93.385696	-613.330383	69.452553	142.055237	-441.064209	123.463882	100.201851	-833.527441	792.419271	254.731610	-810.044788	783.056143	108.013235	
6	0.025000	-841.032898	1232.325073	177.496735	-886.218872	1048.023193	175.000275	-720.483337	1182.389038	180.634201	-676.937744	1047.984131	181.560165	-876.940308	1160.601318	274.534485	-732.725281	839.272400	87.277222	-764.658630	851.411743	287.689209	-907.951172	884.023560	161.700302	-842.550293	649.801880	316.513428	-893.907715	606.974670	316.732880	-847.314636	585.134583	302.266479	-912.613525	460.089569	285.795685	-1017.446899	367.248688	306.915741	-1065.595947	322.480957	296.782410	-1019.564392	302.177246	293.556641	-1148.476074	144.937592	267.390869	-1193.424072	160.590302	215.695847	-1043.167603	58.048740	243.009109	-734.761047	654.377014	42.337799	-738.654480	588.701294	45.341988	-691.693665	606.746765	61.683437	-673.103394	463.449524	78.183258	-676.022461	315.692444	57.762321	-661.399780	251.918839	69.829399	-619.483337	281.519470	64.970222	-583.621826	88.909935	94.422447	-610.768860	68.542046	142.614670	-437.220276	118.224487	103.442429	-825.207098	791.553134	254.012524	-801.837825	782.669392	107.348220	
7	0.030000	-834.026306	1231.827026	176.437393	-878.825195	1047.342773	174.424316	-713.381958	1182.110718	179.573471	-669.382935	1047.900513	180.461899	-869.890503	1159.975952	273.434113	-724.731201	839.181702	86.770393	-756.482300	850.581177	287.076019	-900.102295	883.297180	161.600784	-834.396118	648.929565	316.054413	-885.693054	606.023926	316.479553	-839.080994	584.235779	302.033142	-904.150208	458.784912	286.211670	-1010.678284	367.497864	307.146637	-1059.534302	323.502838	296.967529	-1013.876160	302.457306	293.879059	-1145.420044	147.230240	267.784180	-1189.679321	164.109741	215.924149	-1042.725830	57.713612	242.868256	-726.337524	654.483704	42.388741	-729.895081	588.769043	45.519848	-683.032593	607.078125	61.992104	-664.945862	462.982697	78.669861	-669.435242	314.887512	58.531292	-655.735352	250.907669	70.765747	-613.346375	279.971405	66.062233	-580.086365	87.514763	95.297523	-608.316956	67.973564	142.981415	-433.411041	112.933441	106.646317	-816.931796	790.745754	253.284191	-793.693918	782.402748	106.685241	
8	0.035000	-827.037109	1231.399048	175.411255	-871.469604	1046.743652	173.877747	-706.305725	1181.893066	178.545441	-661.861267	1047.872437	179.397247	-862.855286	1159.434814	272.372528	-716.805969	839.213562	86.286118	-748.350342	849.790039	286.468597	-892.315369	882.653564	161.524445	-826.053162	648.012756	315.603851	-877.226135	604.967834	316.238281	-830.570862	583.288696	301.824829	-895.313049	457.397766	286.691498	-1003.534119	367.706726	307.439667	-1053.094727	324.509613	297.172791	-1007.815369	302.704376	294.298157	-1141.934814	149.563690	268.206818	-1185.398193	167.730484	216.165604	-1042.265747	57.329700	242.691223	-718.043945	654.649353	42.326984	-721.432312	588.854553	45.656254	-674.618286	607.299500	62.118675	-656.821411	462.687317	79.104965	-662.644531	314.357849	59.126789	-649.829407	250.184692	71.457703	-607.036987	278.753754	67.138672	-576.594849	86.394257	96.012253	-605.974060	67.729431	143.161209	-429.650665	107.640022	109.794891	-808.702814	789.996989	252.546585	-785.614020	782.255573	106.023707	
